<svg id="Layer_1" height="512" viewBox="0 0 256 256" width="512" xmlns="http://www.w3.org/2000/svg"><g><path d="m58.286 219.699c-1.381 0-2.5-1.119-2.5-2.5v-153.399c0-1.381 1.119-2.5 2.5-2.5s2.5 1.119 2.5 2.5v153.399c0 1.381-1.119 2.5-2.5 2.5z" fill="#ebe7f2"/><path d="m197.714 201.883c-1.381 0-2.5-1.119-2.5-2.5v-135.583c0-1.381 1.119-2.5 2.5-2.5s2.5 1.119 2.5 2.5v135.583c0 1.381-1.119 2.5-2.5 2.5z" fill="#ebe7f2"/><path d="m222.022 220.38-45.367-45.367c6.938-9.753 11.035-21.66 11.035-34.513 0-32.913-26.777-59.69-59.69-59.69s-59.69 26.777-59.69 59.69c0 32.914 26.777 59.691 59.69 59.691 12.854 0 24.761-4.097 34.513-11.036l45.367 45.367c1.95 1.949 4.51 2.925 7.071 2.924 2.561 0 5.122-.975 7.071-2.924 3.899-3.9 3.899-10.244 0-14.142zm-148.712-79.881c0-30.156 24.534-54.69 54.69-54.69s54.69 24.534 54.69 54.69c0 30.157-24.534 54.691-54.69 54.691s-54.69-24.534-54.69-54.691zm145.177 90.487c-1.95 1.95-5.122 1.949-7.072 0l-44.92-44.919c2.549-2.157 4.915-4.523 7.072-7.072l44.92 44.92c1.95 1.949 1.95 5.121 0 7.071z" fill="#65c1d6"/><g fill="#846f75"><path d="m217.262 36.238h-178.524c-1.381 0-2.5 1.119-2.5 2.5v178.523c0 1.381 1.119 2.5 2.5 2.5h143.098c1.381 0 2.5-1.119 2.5-2.5s-1.119-2.5-2.5-2.5h-140.598v-148.461h173.524v141.046c0 1.381 1.119 2.5 2.5 2.5s2.5-1.119 2.5-2.5v-168.608c0-1.381-1.119-2.5-2.5-2.5zm-176.024 25.062v-20.062h173.524v20.062z"/><path d="m58.942 44.997c-3.763 0-6.824 3.061-6.824 6.823s3.061 6.823 6.824 6.823c3.762 0 6.823-3.061 6.823-6.823s-3.06-6.823-6.823-6.823zm0 8.647c-1.005 0-1.824-.818-1.824-1.823s.818-1.823 1.824-1.823 1.823.818 1.823 1.823-.817 1.823-1.823 1.823z"/><path d="m75.781 44.997c-3.762 0-6.823 3.061-6.823 6.823s3.061 6.823 6.823 6.823c3.763 0 6.824-3.061 6.824-6.823s-3.062-6.823-6.824-6.823zm0 8.647c-1.005 0-1.823-.818-1.823-1.823s.818-1.823 1.823-1.823 1.824.818 1.824 1.823-.819 1.823-1.824 1.823z"/><path d="m92.62 44.997c-3.762 0-6.823 3.061-6.823 6.823s3.061 6.823 6.823 6.823 6.823-3.061 6.823-6.823-3.061-6.823-6.823-6.823zm0 8.647c-1.005 0-1.823-.818-1.823-1.823s.818-1.823 1.823-1.823 1.823.818 1.823 1.823-.818 1.823-1.823 1.823z"/><path d="m198.388 49.32h-26.396c-1.381 0-2.5 1.119-2.5 2.5s1.119 2.5 2.5 2.5h26.396c1.381 0 2.5-1.119 2.5-2.5s-1.119-2.5-2.5-2.5z"/><path d="m136.341 113.939-21.299 51.199c-.53 1.274.073 2.738 1.348 3.269.314.13.639.192.959.192.979 0 1.91-.58 2.309-1.541l21.299-51.199c.53-1.274-.073-2.738-1.348-3.269-1.275-.527-2.738.074-3.268 1.349z"/><path d="m146.814 158.965c.488.488 1.128.732 1.768.732s1.28-.244 1.768-.732l16.698-16.698c.469-.469.732-1.104.732-1.768s-.263-1.299-.732-1.768l-16.698-16.697c-.976-.977-2.56-.977-3.535 0-.977.977-.977 2.559 0 3.535l14.93 14.93-14.93 14.931c-.977.976-.977 2.558-.001 3.535z"/><path d="m109.186 122.034c-.976-.977-2.56-.977-3.535 0l-16.698 16.697c-.469.469-.732 1.104-.732 1.768s.263 1.299.732 1.768l16.698 16.698c.488.488 1.128.732 1.768.732s1.28-.244 1.768-.732c.977-.977.977-2.559 0-3.535l-14.93-14.931 14.93-14.93c.975-.976.975-2.558-.001-3.535z"/></g></g></svg>