<svg id="Capa_1" enable-background="new 0 0 512 512" height="512" viewBox="0 0 512 512" width="512" xmlns="http://www.w3.org/2000/svg"><g><path d="m392 106v120c0 8.399-6.599 15-15 15h-242.601l-59.399-19.801v-130.199h302c8.401 0 15 6.599 15 15z" fill="#c3ea21"/><path d="m392 106v120c0 8.399-6.599 15-15 15h-121v-150h121c8.401 0 15 6.599 15 15z" fill="#9cdd05"/><path d="m256 301h-121c-8.291 0-15 6.709-15 15v120c0 8.291 6.709 15 15 15h121 121l60-16.307v-133.693z" fill="#fed843"/><path d="m437 434.693v-133.693h-181v150h121z" fill="#fabe2c"/><circle cx="315.999" cy="375.999" fill="#dfe7f4" r="15"/><g fill="#f0f7ff"><circle cx="256" cy="376" r="15"/><circle cx="195.999" cy="375.999" r="15"/><circle cx="195.999" cy="165.999" r="15"/><circle cx="256" cy="166" r="15"/></g><circle cx="315.999" cy="165.999" fill="#dfe7f4" r="15"/><circle cx="437" cy="316" fill="#ffe1ba" r="45"/><path d="m482 316c0-24.814-20.186-45-45-45v90c24.814 0 45-20.186 45-45z" fill="#ffbfab"/><path d="m437 361c-41.353 0-75 33.647-75 75 0 8.291 6.709 15 15 15h60 60c8.291 0 15-6.709 15-15 0-41.353-33.647-75-75-75z" fill="#ff641a"/><path d="m512 436c0-41.353-33.647-75-75-75v90h60c8.291 0 15-6.709 15-15z" fill="#f03800"/><path d="m271 376c0 8.399-6.599 15-15 15v-30c8.401 0 15 6.599 15 15z" fill="#dfe7f4"/><circle cx="75" cy="106" fill="#ffe1ba" r="45"/><path d="m120 106c0-24.814-20.186-45-45-45v90c24.814 0 45-20.186 45-45z" fill="#ffbfab"/><path d="m75 151c-41.353 0-75 33.647-75 75 0 8.291 6.709 15 15 15h60 60c8.291 0 15-6.709 15-15 0-41.353-33.647-75-75-75z" fill="#979fef"/><path d="m150 226c0-41.353-33.647-75-75-75v90h60c8.291 0 15-6.709 15-15z" fill="#6b77e8"/><path d="m271 166c0 8.399-6.599 15-15 15v-30c8.401 0 15 6.599 15 15z" fill="#dfe7f4"/></g></svg>