<svg id="Layer_2" enable-background="new 0 0 64 64" height="512" viewBox="0 0 64 64" width="512" xmlns="http://www.w3.org/2000/svg"><path d="m9.426 19.613h43.389v41.113h-43.389z" fill="#d1d1d1"/><path d="m52.814 61.227h-43.388c-.276 0-.5-.224-.5-.5v-41.114c0-.276.224-.5.5-.5h43.389c.276 0 .5.224.5.5v41.113c-.001.277-.224.501-.501.501zm-42.888-1h42.389v-40.114h-42.389z" fill="#63312d"/><path d="m11.523 8.721h43.387v10.893h-43.387z" fill="#52b8d9"/><path d="m54.91 20.113h-43.387c-.276 0-.5-.224-.5-.5v-10.892c0-.276.224-.5.5-.5h43.387c.276 0 .5.224.5.5v10.893c0 .276-.223.499-.5.499zm-42.887-1h42.387v-9.892h-42.387z" fill="#63312d"/><path d="m5.234 8.721h43.387v10.893h-43.387z" fill="#82d9ff"/><path d="m7.234 10.721h41.387v-2h-43.387v10.892h2z" fill="#caf4ff"/><path d="m48.621 20.113h-43.387c-.276 0-.5-.224-.5-.5v-10.892c0-.276.224-.5.5-.5h43.387c.276 0 .5.224.5.5v10.893c0 .276-.224.499-.5.499zm-42.887-1h42.387v-9.892h-42.387z" fill="#63312d"/><path d="m5.234 19.613h43.387v41.113h-43.387z" fill="#f8f3f3"/><path d="m48.621 61.227h-43.387c-.276 0-.5-.224-.5-.5v-41.114c0-.276.224-.5.5-.5h43.387c.276 0 .5.224.5.5v41.113c0 .277-.224.501-.5.501zm-42.887-1h42.387v-40.114h-42.387z" fill="#63312d"/><path d="m23.455 3.273v8.077h-8.076v2.816h43.389v-10.893z" fill="#db785a"/><path d="m58.768 14.666h-43.389c-.276 0-.5-.224-.5-.5v-2.816c0-.276.224-.5.5-.5h7.576v-7.577c0-.276.224-.5.5-.5h35.313c.276 0 .5.224.5.5v10.893c0 .276-.224.5-.5.5zm-42.889-1h42.389v-9.893h-34.313v7.576c0 .276-.224.5-.5.5h-7.576z" fill="#63312d"/><path d="m15.379 14.166h43.389v41.113h-43.389z" fill="#d1d1d1"/><path d="m58.768 55.779h-43.389c-.276 0-.5-.224-.5-.5v-41.113c0-.276.224-.5.5-.5h43.389c.276 0 .5.224.5.5v41.113c0 .277-.224.5-.5.5zm-42.889-1h42.389v-40.113h-42.389z" fill="#63312d"/><path d="m19.262 3.273v8.077h-8.075v2.816h43.387v-10.893z" fill="#f9a287"/><path d="m11.187 11.35h2.047v2.816h-2.047z" fill="#ffc8bb"/><path d="m19.262 3.273h35.313v2.098h-35.313z" fill="#ffc8bb"/><path d="m54.574 14.666h-43.386c-.276 0-.5-.224-.5-.5v-2.816c0-.276.224-.5.5-.5h7.574v-7.577c0-.276.224-.5.5-.5h35.313c.276 0 .5.224.5.5v10.893c-.001.276-.224.5-.501.5zm-42.886-1h42.387v-9.893h-34.313v7.576c0 .276-.224.5-.5.5h-7.574z" fill="#63312d"/><path d="m19.262 3.273-8.075 8.077h8.075z" fill="#ffc8bb"/><path d="m19.262 11.85h-8.074c-.202 0-.385-.122-.462-.309s-.034-.402.108-.545l8.074-8.076c.144-.144.359-.185.545-.108.187.077.309.26.309.462v8.076c0 .276-.224.5-.5.5zm-6.867-1h6.367v-6.37z" fill="#63312d"/><path d="m11.187 14.166h43.387v41.113h-43.387z" fill="#f8f3f3"/><path d="m54.574 55.779h-43.386c-.276 0-.5-.224-.5-.5v-41.113c0-.276.224-.5.5-.5h43.387c.276 0 .5.224.5.5v41.113c-.001.277-.224.5-.501.5zm-42.886-1h42.387v-40.113h-42.387z" fill="#63312d"/><path d="m33.217 21.203h14.883v2.357h-14.883z" fill="#f8f3f3"/><path d="m17.283 21.203h11.385v12.387h-11.385z" fill="#f9dd9d"/><path d="m33.217 26.217h14.883v2.357h-14.883z" fill="#f8f3f3"/><path d="m33.217 31.232h14.883v2.357h-14.883z" fill="#f8f3f3"/><path d="m17.283 36.246h30.816v2.357h-30.816z" fill="#f8f3f3"/><path d="m17.283 41.262h30.816v2.357h-30.816z" fill="#f8f3f3"/><path d="m17.283 46.275h30.816v2.357h-30.816z" fill="#f8f3f3"/><g fill="#63312d"><path d="m48.1 24.061h-14.883c-.276 0-.5-.224-.5-.5v-2.357c0-.276.224-.5.5-.5h14.883c.276 0 .5.224.5.5v2.357c0 .276-.224.5-.5.5zm-14.383-1h13.883v-1.357h-13.883z"/><path d="m28.668 34.09h-11.385c-.276 0-.5-.224-.5-.5v-12.387c0-.276.224-.5.5-.5h11.385c.276 0 .5.224.5.5v12.387c0 .276-.224.5-.5.5zm-10.885-1h10.385v-11.387h-10.385z"/><path d="m48.1 29.074h-14.883c-.276 0-.5-.224-.5-.5v-2.357c0-.276.224-.5.5-.5h14.883c.276 0 .5.224.5.5v2.357c0 .277-.224.5-.5.5zm-14.383-1h13.883v-1.357h-13.883z"/><path d="m48.1 34.09h-14.883c-.276 0-.5-.224-.5-.5v-2.357c0-.276.224-.5.5-.5h14.883c.276 0 .5.224.5.5v2.357c0 .276-.224.5-.5.5zm-14.383-1h13.883v-1.357h-13.883z"/><path d="m48.1 39.104h-30.817c-.276 0-.5-.224-.5-.5v-2.357c0-.276.224-.5.5-.5h30.817c.276 0 .5.224.5.5v2.357c0 .276-.224.5-.5.5zm-30.317-1h29.817v-1.357h-29.817z"/><path d="m48.1 44.119h-30.817c-.276 0-.5-.224-.5-.5v-2.357c0-.276.224-.5.5-.5h30.817c.276 0 .5.224.5.5v2.357c0 .277-.224.5-.5.5zm-30.317-1h29.817v-1.357h-29.817z"/><path d="m48.1 49.133h-30.817c-.276 0-.5-.224-.5-.5v-2.357c0-.276.224-.5.5-.5h30.817c.276 0 .5.224.5.5v2.357c0 .276-.224.5-.5.5zm-30.317-1h29.817v-1.357h-29.817z"/></g></svg>