<svg height="512" viewBox="0 0 64 64" width="512" xmlns="http://www.w3.org/2000/svg"><path d="m53.872 52.929-.744-1.858 6.872-2.748v-6.323h-6.5v-2h7.5a1 1 0 0 1 1 1v8a1 1 0 0 1 -.628.929z" fill="#ea732d"/><path d="m11 11h42v50h-42z" fill="#3890ce"/><path d="m7 7h42v50h-42z" fill="#4ebae7"/><path d="m59 61h-26l-2-4h30z" fill="#ea732d"/><path d="m36 37h20a0 0 0 0 1 0 0v17a3 3 0 0 1 -3 3h-14a3 3 0 0 1 -3-3v-17a0 0 0 0 1 0 0z" fill="#ffc119"/><path d="m16 22a2 2 0 0 0 -4 0v17h4z" fill="#ffc119"/><path d="m12 39v3l2 2 2-2v-3z" fill="#ea732d"/><path d="m11 47h2v2h-2z" fill="#a1dbe8"/><path d="m15 47h17v2h-17z" fill="#a1dbe8"/><path d="m11 51h21v2h-21z" fill="#a1dbe8"/><path d="m21 17h23v13h-23z" fill="#ffc119"/><g fill="#a1dbe8"><path d="m20 34h2v2h-2z"/><path d="m24 34h8v2h-8z"/><path d="m20 38h12v2h-12z"/><path d="m20 42h12v2h-12z"/></g><path d="m2 14h2v35h-2z" fill="#ccdce5"/><path d="m15 14a3 3 0 0 1 -3-3v-1h2v1a1 1 0 0 0 2 0v-5.5a1.5 1.5 0 0 0 -3 0v1.5h-2v-1.5a3.5 3.5 0 0 1 7 0v5.5a3 3 0 0 1 -3 3z" fill="#3890ce"/><path d="m21 11h2v2h-2z" fill="#a1dbe8"/><path d="m25 11h20v2h-20z" fill="#a1dbe8"/><path d="m39 25h2v2h-2z" fill="#ea732d"/><path d="m35 25h2v2h-2z" fill="#ea732d"/><path d="m31 25h2v2h-2z" fill="#ea732d"/></svg>