<svg id="Layer_3" enable-background="new 0 0 64 64" height="512" viewBox="0 0 64 64" width="512" xmlns="http://www.w3.org/2000/svg"><path d="m40 38h22v-28h-8v-8h-20v25" fill="#a1cdfb"/><path d="m51 11c0-3.194-.553-6.236-1.551-9h-15.449v24l4.356 6.534c7.386-3.273 12.644-11.678 12.644-21.534z" fill="#c7e2fc"/><path d="m62 10-8-8v8z" fill="#c7e2fc"/><g fill="#8892a0"><path d="m37 25h11v2h-11z"/><path d="m37 29h11v2h-11z"/><path d="m39 33h9v2h-9z"/><path d="m37 21h22v2h-22z"/><path d="m37 17h22v2h-22z"/><path d="m37 13h22v2h-22z"/></g><circle cx="22" cy="42" fill="#2b74ca" r="20"/><path d="m38 34c0-1.585-.171-3.129-.49-4.618-3.667-4.503-9.25-7.382-15.51-7.382-11.046 0-20 8.954-20 20 0 4.224 1.317 8.136 3.552 11.364 3.108 1.681 6.666 2.636 10.448 2.636 12.15 0 22-9.85 22-22z" fill="#3d98f7"/><path d="m22 22c-6.8 0-12.799 3.401-16.412 8.588l1.412 1.412h3l3-3h4l2-2h3l2-2v-2.899c-.658-.065-1.325-.101-2-.101z" fill="#78b75b"/><path d="m39.566 32.434c-2.119-3.882-5.49-6.976-9.566-8.759v4.325l2 2v3l2 2h3z" fill="#78b75b"/><path d="m39.566 51.566-1.566-1.566h-3l-2 2h-4v3l-2 2h-3l-2 2v3c7.58 0 14.174-4.218 17.566-10.434z" fill="#78b75b"/><path d="m14 50-6.142 6.142c.837.837 1.755 1.591 2.73 2.27l2.412-2.412h3l2-2v-2l-2-2z" fill="#78b75b"/><path d="m12 42.238-3.232-3.878c-.27-.324-.714-.442-1.108-.3-.396.143-.66.519-.66.94v7h2v-4.238l3.232 3.878c.194.233.477.36.768.36.114 0 .229-.02.34-.06.396-.143.66-.519.66-.94v-7h-2z" fill="#fff"/><path d="m28 42.586-1.293-1.293c-.391-.391-1.023-.391-1.414 0l-1.293 1.293v-4.586h-2v7c0 .404.244.769.617.924s.803.069 1.09-.217l2.293-2.293 2.293 2.293c.191.191.447.293.707.293.129 0 .259-.025.383-.076.373-.155.617-.52.617-.924v-7h-2z" fill="#fff"/><path d="m15 39v6c0 .552.448 1 1 1h5v-2h-4v-1h4v-2h-4v-1h4v-2h-5c-.552 0-1 .448-1 1z" fill="#fff"/><path d="m31 39v3c0 .552.448 1 1 1h3v1h-4v2h5c.552 0 1-.448 1-1v-3c0-.552-.448-1-1-1h-3v-1h4v-2h-5c-.552 0-1 .448-1 1z" fill="#fff"/></svg>