<svg height="512" viewBox="0 0 512 512" width="512" xmlns="http://www.w3.org/2000/svg"><g id="flat"><path d="m274.627 306.059 47.432-47.432a20.22 20.22 0 0 0 4.119-5.941l14.563 6.628a36.192 36.192 0 0 1 -7.368 10.627l-47.432 47.432z" fill="#ffaf00"/><path d="m229.373 253.941-47.432 47.432a20.391 20.391 0 0 0 -5.7 11.2v15.427h-16v-16a8.03 8.03 0 0 1 .069-1.051 36.487 36.487 0 0 1 10.313-20.89l47.432-47.432 13.945-2.627z" fill="#f55441"/><rect fill="#e6e6e6" height="176" rx="32" width="176" x="24" y="312"/><path d="m24 352h176v16h-176z" fill="#ccc"/><circle cx="368" cy="144" fill="#6ad3d3" r="120"/><path d="m24 344v16h176v-16a32 32 0 0 0 -32-32h-112a32 32 0 0 0 -32 32z" fill="#645960"/><rect fill="#19af19" height="16" rx="8" width="16" x="96" y="328"/><rect fill="#ffaf00" height="16" rx="8" width="16" x="72" y="328"/><rect fill="#e11919" height="16" rx="8" width="16" x="48" y="328"/><path d="m264 268.284a20.146 20.146 0 0 0 -1.459-7.512l-16.6 16.6a20.215 20.215 0 0 0 -4.482 21.855l16.6-16.6a20.152 20.152 0 0 0 5.941-14.343z" fill="none"/><path d="m368 16a128 128 0 1 0 128 128 128.144 128.144 0 0 0 -128-128zm101.179 80h-44.233a163.292 163.292 0 0 0 -34.892-61.814 112.4 112.4 0 0 1 79.125 61.814zm-53.179 47.557a148.773 148.773 0 0 1 -3.558 32.443h-36.442v-64h36.6a147.8 147.8 0 0 1 3.4 31.557zm-96 0a147.8 147.8 0 0 1 3.4-31.557h36.6v64h-36.442a148.773 148.773 0 0 1 -3.558-32.443zm40-47.557h-32.137a147.338 147.338 0 0 1 32.137-53.474zm0 96v52.574a146.785 146.785 0 0 1 -31.893-52.574zm16 0h31.893a146.785 146.785 0 0 1 -31.893 52.574zm0-96v-53.474a147.338 147.338 0 0 1 32.137 53.474zm-30.054-61.814a163.292 163.292 0 0 0 -34.892 61.814h-44.233a112.4 112.4 0 0 1 79.125-61.814zm-85.28 77.814h46.4a164.875 164.875 0 0 0 .131 64h-46.531a112.063 112.063 0 0 1 0-64zm6.155 80h44.442a162.431 162.431 0 0 0 35.658 62 112.384 112.384 0 0 1 -80.1-62zm122.258 62a162.431 162.431 0 0 0 35.658-62h44.442a112.384 112.384 0 0 1 -80.1 62zm86.255-78h-46.534a164.875 164.875 0 0 0 .131-64h46.4a112.063 112.063 0 0 1 0 64z" fill="#315a70"/><path d="m453.363 59.67a264.363 264.363 0 0 1 -189.5 143.991 120.007 120.007 0 1 0 189.5-143.991z" fill="#4eb7b4"/><path d="m456.942 52.044q-3.48 7.749-7.448 15.221a112.471 112.471 0 0 1 19.685 28.735h-37.313a264.973 264.973 0 0 1 -17.976 22.721 148.614 148.614 0 0 1 -1.448 57.279h-36.442v-22.015q-7.779 5.937-16 11.3v10.715h-17.918a262.6 262.6 0 0 1 -35.365 16h4.546a162.431 162.431 0 0 0 35.658 62 112.3 112.3 0 0 1 -74.695-52.023q-8.26 1.792-16.7 3.074a127.968 127.968 0 1 0 201.416-153.007zm-96.942 192.53a146.785 146.785 0 0 1 -31.893-52.574h31.893zm16-52.574h31.893a146.785 146.785 0 0 1 -31.893 52.574zm13.079 62a162.431 162.431 0 0 0 35.658-62h44.442a112.384 112.384 0 0 1 -80.1 62zm39.72-78a164.875 164.875 0 0 0 .131-64h46.4a112.063 112.063 0 0 1 0 64z" fill="#203b47"/><path d="m234.627 266.059 47.432-47.432a36.285 36.285 0 0 1 51.678.37l-11.474 11.151a20.284 20.284 0 0 0 -28.89-.207l-47.432 47.432-13.941 2.627z" fill="#ffaf00"/><path d="m218.059 242.627a36.284 36.284 0 0 1 51.314 51.314l-47.432 47.432a36.285 36.285 0 0 1 -50.944.364l11.151-11.474a20.284 20.284 0 0 0 28.479-.2l47.432-47.432a20.284 20.284 0 0 0 -28.686-28.686z" fill="#f55441"/><path d="m285.941 317.373a36.284 36.284 0 0 1 -51.314-51.314l11.314 11.314a20.284 20.284 0 0 0 28.686 28.686z" fill="#ffaf00"/></g></svg>