<svg id="flat" height="512" viewBox="0 0 512 512" width="512" xmlns="http://www.w3.org/2000/svg"><path d="m236 184a52 52 0 0 1 -52-52v-.00011a52 52 0 0 1 52-52h12v-16a40 40 0 0 1 40-40 40.01374 40.01374 0 0 1 39.19982 32l16.80018.00011a40 40 0 0 1 40 40h12a44 44 0 0 1 44 44 44 44 0 0 1 -44 44z" fill="#9ce6ed"/><path d="m208 448v-96a16 16 0 0 0 -16-16h-128a16 16 0 0 0 -16 16v96z" fill="#8760e6"/><rect fill="#ffc431" height="80" rx="16" width="208" x="272" y="248"/><circle cx="312" cy="288" fill="#ffe28f" r="8"/><g fill="#ffb401"><path d="m352 272h16v32h-16z"/><path d="m376 272h16v32h-16z"/><path d="m400 272h16v32h-16z"/></g><rect fill="#ffc431" height="80" rx="16" width="208" x="272" y="328"/><circle cx="312" cy="368" fill="#ffe28f" r="8"/><path d="m352 352h16v32h-16z" fill="#ffb401"/><path d="m376 352h16v32h-16z" fill="#ffb401"/><path d="m400 352h16v32h-16z" fill="#ffb401"/><rect fill="#ffc431" height="80" rx="16" width="208" x="272" y="408"/><circle cx="312" cy="448" fill="#ffe28f" r="8"/><path d="m352 432h16v32h-16z" fill="#ffb401"/><path d="m376 432h16v32h-16z" fill="#ffb401"/><path d="m400 432h16v32h-16z" fill="#ffb401"/><path d="m232 448v16a15.99564 15.99564 0 0 1 -16 16h-176a15.99564 15.99564 0 0 1 -16-16v-16z" fill="#ffc431"/><path d="m160 448a8.00261 8.00261 0 0 1 -2.34009 5.65991l-8 8a8.00769 8.00769 0 0 1 -5.65991 2.34009h-32a8.00769 8.00769 0 0 1 -5.65991-2.34009l-8-8a8.00261 8.00261 0 0 1 -2.34009-5.65991z" fill="#ffb401"/><path d="m144 384h128v16h-128z" fill="#d1e4ff"/><rect fill="#6cdbe6" height="16" rx="8" width="32" x="248" y="72"/><rect fill="#6cdbe6" height="32" rx="8" width="16" x="320" y="56"/><path d="m304 152h16v96h-16z" fill="#d1e4ff"/><circle cx="128" cy="392" fill="#bed3f7" r="16"/><path d="m128 416a24 24 0 1 1 24-24 24.0275 24.0275 0 0 1 -24 24zm0-32a8 8 0 1 0 8 8 8.00917 8.00917 0 0 0 -8-8z" fill="#e8f2ff"/><rect fill="#ffa100" height="16" rx="8" width="176" x="288" y="320"/><rect fill="#ffa100" height="16" rx="8" width="176" x="288" y="400"/><circle cx="312" cy="136" fill="#bed3f7" r="16"/><path d="m312 160a24 24 0 1 1 24-24 24.0275 24.0275 0 0 1 -24 24zm0-32a8 8 0 1 0 8 8 8.00917 8.00917 0 0 0 -8-8z" fill="#e8f2ff"/></svg>