<svg id="color" enable-background="new 0 0 24 24" height="512" viewBox="0 0 24 24" width="512" xmlns="http://www.w3.org/2000/svg"><path d="m7.849 16.309-2.5-3.319c-.173-.23-.46-.342-.745-.284l-4 .79c-.22.043-.41.184-.516.381-.106.198-.118.434-.032.642l1.13 2.73-1.129 2.681c-.107.255-.065.549.109.764.144.177.359.277.582.277l.142-.014c.03-.006 3.058-.587 3.948-.701.912-.11 1.712-.181 2.447-.216.401-.02.715-.35.715-.75v-2.53c0-.163-.053-.322-.151-.451z" fill="#c62828"/><path d="m22.813 17.248 1.13-2.73c.086-.208.074-.443-.032-.642-.106-.197-.295-.338-.516-.381l-4-.79c-.285-.058-.572.055-.745.285l-2.5 3.329c-.098.13-.15.288-.15.45v2.521c0 .4.314.729.714.749.735.035 1.535.105 2.44.215.897.115 3.924.696 3.955.702l.142.014c.224 0 .439-.101.583-.277.174-.215.216-.509.109-.764z" fill="#c62828"/><path d="m8 17.263h-6.819l-1.123 2.666c-.107.255-.065.549.109.764.144.177.359.277.582.277l.142-.014c.03-.006 3.058-.587 3.948-.701.912-.11 1.712-.181 2.447-.216.4-.019.714-.349.714-.749z" fill="#ac2323"/><path d="m22.819 17.263h-6.819v2.027c0 .4.314.729.714.749.735.035 1.535.105 2.44.215.897.115 3.924.696 3.955.702l.142.014c.224 0 .439-.101.583-.277.174-.215.216-.509.109-.764z" fill="#ac2323"/><path d="m19.389 10.232-3.848-.729-.148-.013-6.741-.02-.148.014c-.959.19-3.896.76-3.896.76-.354.068-.608.377-.608.736v6.239c0 .224.1.436.272.578.136.113.305.173.478.173l.142-.014c.03-.006 3.058-.587 3.951-.702 2.946-.366 3.359-.364 6.32.021.894.105 3.917.676 3.948.682.22.042.446-.018.618-.16.171-.143.271-.354.271-.577v-6.25c0-.361-.256-.67-.611-.738z" fill="#f44336"/><path d="m18.96 5.258c-.09-.267-.322-.46-.6-.502l-3.925-.585-1.774-3.742c-.123-.262-.388-.429-.677-.429-.279-.045-.557.169-.68.434l-1.748 3.754-3.922.612c-.278.044-.508.238-.596.506-.088.267-.02.56.177.762l2.87 2.918-.663 4.146c-.045.283.075.568.311.732.129.09.28.136.431.136.125 0 .251-.031.365-.095l3.494-1.945 3.507 1.922c.252.138.561.118.794-.047.234-.166.353-.451.306-.734l-.691-4.143 2.85-2.937c.195-.203.262-.497.171-.763z" fill="#ffc107"/><path d="m7.99 9.586c-1.22.239-3.382.658-3.382.658-.354.068-.608.377-.608.736v6.239c0 .224.1.436.272.578.136.113.305.173.478.173l.142-.014c.03-.006 3.058-.587 3.951-.702 1.45-.18 2.286-.271 3.115-.271h.043v-5.01l-3.472 1.933c-.114.063-.24.094-.365.094-.151 0-.301-.046-.43-.136-.235-.164-.356-.449-.311-.732z" fill="#d43a2f"/><path d="m11.984 0h-.152c-.223.035-.427.217-.528.434l-1.748 3.754-3.922.612c-.278.044-.508.238-.596.506-.088.267-.02.56.177.762l2.87 2.918-.096.6-.567 3.546c-.045.283.075.568.311.732.129.09.28.136.431.136.125 0 .251-.031.365-.095l3.471-1.933v-11.972c-.005 0-.011 0-.016 0z" fill="#dea806"/></svg>